:version 1.10
:name ASF
:units
  mass 1
  length 1
  angle deg
:documentation
  ASF file generated by Kaydara
:root
  axis xyz
  order  tx ty tz rx ry rz
  position 0 0 0
  orientation 0 0 0
:bonedata
  begin
    id 1
    name lfemurDummy
    direction 0.61522 -0.761478 0.204097
    length 5.68318
    axis 0 -0 0 xyz
  end
  begin
    id 2
    name lfemur
    direction 0.34202 -0.939693 -5.84747e-008
    length 16.9147
    axis 0 -0 20 xyz
    dof rx ry rz
    limits( -inf , inf )
( -inf , inf )
( -inf , inf )

  end
  begin
    id 3
    name ltibia
    direction 0.34202 -0.939693 1.20839e-009
    length 18.0532
    axis 0 -0 20 xyz
    dof rz ry rx
    limits( -inf , inf )
( -inf , inf )
( -inf , inf )

  end
  begin
    id 4
    name lfoot
    direction 0.0841971 -0.23133 0.969225
    length 5.23822
    axis -90 7.62852e-016 20 xyz
    dof ry rx rz
    limits( -inf , inf )
( -inf , inf )
( -inf , inf )

  end
  begin
    id 5
    name ltoes
    direction 0 0 0
    length 0
    axis 0 0 0 xyz
    dof rz ry rx
    limits( -inf , inf )
( -inf , inf )
( -inf , inf )

  end
  begin
    id 6
    name rfemurDummy
    direction -0.625247 -0.75382 0.202044
    length 5.74091
    axis 0 -0 0 xyz
  end
  begin
    id 7
    name rfemur
    direction -0.34202 -0.939693 -1.47013e-008
    length 16.4922
    axis 0 -0 -20 xyz
    dof rx ry rz
    limits( -inf , inf )
( -inf , inf )
( -inf , inf )

  end
  begin
    id 8
    name rtibia
    direction -0.34202 -0.939693 -7.74345e-010
    length 18.2421
    axis 0 -0 -20 xyz
    dof rz ry rx
    limits( -inf , inf )
( -inf , inf )
( -inf , inf )

  end
  begin
    id 9
    name rfoot
    direction -0.124331 -0.341598 0.931586
    length 5.45787
    axis -90 -7.62852e-016 -20 xyz
    dof ry rx rz
    limits( -inf , inf )
( -inf , inf )
( -inf , inf )

  end
  begin
    id 10
    name rtoes
    direction 0 0 0
    length 0
    axis 0 0 0 xyz
    dof rz ry rx
    limits( -inf , inf )
( -inf , inf )
( -inf , inf )

  end
  begin
    id 11
    name lowerbackDummy
    direction 0 0 0
    length 0
    axis 0 -0 0 xyz
  end
  begin
    id 12
    name lowerback
    direction -0.0218484 0.994884 -0.0986304
    length 4.45607
    axis 0 -0 0 xyz
    dof rx ry rz
    limits( -inf , inf )
( -inf , inf )
( -inf , inf )

  end
  begin
    id 13
    name upperback
    direction -0.00973057 0.999717 -0.0217111
    length 4.47449
    axis 0 -0 0 xyz
    dof rx ry rz
    limits( -inf , inf )
( -inf , inf )
( -inf , inf )

  end
  begin
    id 14
    name thorax
    direction -0.000928171 0.999699 0.0245198
    length 4.50973
    axis 0 -0 0 xyz
    dof rx ry rz
    limits( -inf , inf )
( -inf , inf )
( -inf , inf )

  end
  begin
    id 15
    name rclavicle
    direction -0.9009 0.425937 -0.0834055
    length 7.28587
    axis 0 -0 0 xyz
    dof rx ry rz
    limits( -inf , inf )
( -inf , inf )
( -inf , inf )

  end
  begin
    id 16
    name rhumerus
    direction -1 -2.23604e-007 -1.42637e-007
    length 13.5704
    axis 180 30 90 xyz
    dof rx ry rz
    limits( -inf , inf )
( -inf , inf )
( -inf , inf )

  end
  begin
    id 17
    name rradius
    direction -1 5.68281e-008 -4.4952e-007
    length 8.06782
    axis 180 30 90 xyz
    dof rz ry rx
    limits( -inf , inf )
( -inf , inf )
( -inf , inf )

  end
  begin
    id 18
    name rwrist
    direction -1 1.51393e-007 1.38143e-007
    length 4.03391
    axis -90 -90 0 xyz
    dof rz rx ry
    limits( -inf , inf )
( -inf , inf )
( -inf , inf )

  end
  begin
    id 19
    name rthumb
    direction 0 0 0
    length 0
    axis 0 0 0 xyz
    dof ry rx rz
    limits( -inf , inf )
( -inf , inf )
( -inf , inf )

  end
  begin
    id 20
    name rhand
    direction -1 -3.34077e-007 -5.59631e-007
    length 1.29744
    axis -90 -90 0 xyz
    dof ry rx rz
    limits( -inf , inf )
( -inf , inf )
( -inf , inf )

  end
  begin
    id 21
    name rfingers
    direction 0 0 0
    length 0
    axis 0 0 0 xyz
    dof rz ry rx
    limits( -inf , inf )
( -inf , inf )
( -inf , inf )

  end
  begin
    id 22
    name lclavicle
    direction 0.940017 0.332249 -0.0773232
    length 8.29589
    axis 0 -0 0 xyz
    dof rx ry rz
    limits( -inf , inf )
( -inf , inf )
( -inf , inf )

  end
  begin
    id 23
    name lhumerus
    direction 1 7.41158e-008 -1.44768e-008
    length 12.0042
    axis 180 -30 -90 xyz
    dof rx ry rz
    limits( -inf , inf )
( -inf , inf )
( -inf , inf )

  end
  begin
    id 24
    name lradius
    direction 1 -1.32972e-007 3.10821e-007
    length 8.1902
    axis 180 -30 -90 xyz
    dof rz ry rx
    limits( -inf , inf )
( -inf , inf )
( -inf , inf )

  end
  begin
    id 25
    name lwrist
    direction 1 3.08957e-007 4.01394e-007
    length 4.09509
    axis -90 90 0 xyz
    dof rz rx ry
    limits( -inf , inf )
( -inf , inf )
( -inf , inf )

  end
  begin
    id 26
    name lthumb
    direction 0 0 0
    length 0
    axis 0 0 0 xyz
    dof ry rx rz
    limits( -inf , inf )
( -inf , inf )
( -inf , inf )

  end
  begin
    id 27
    name lhand
    direction 1 -1.64125e-007 -6.99514e-007
    length 1.37229
    axis -90 90 0 xyz
    dof ry rx rz
    limits( -inf , inf )
( -inf , inf )
( -inf , inf )

  end
  begin
    id 28
    name lfingers
    direction 0 0 0
    length 0
    axis 0 0 0 xyz
    dof rz ry rx
    limits( -inf , inf )
( -inf , inf )
( -inf , inf )

  end
  begin
    id 29
    name lowerneck
    direction -0.030798 0.998024 0.0547665
    length 3.93918
    axis 0 -0 0 xyz
    dof rx ry rz
    limits( -inf , inf )
( -inf , inf )
( -inf , inf )

  end
  begin
    id 30
    name upperneck
    direction 0.0531588 0.996611 -0.0627736
    length 3.95491
    axis 0 -0 0 xyz
    dof rx ry rz
    limits( -inf , inf )
( -inf , inf )
( -inf , inf )

  end
  begin
    id 31
    name head
    direction 0 0 0
    length 0
    axis 0 0 0 xyz
    dof rx ry rz
    limits( -inf , inf )
( -inf , inf )
( -inf , inf )

  end
:hierarchy
  begin
    root lfemurDummy rfemurDummy lowerbackDummy
    lfemurDummy lfemur
    lfemur ltibia
    ltibia lfoot
    lfoot ltoes
    rfemurDummy rfemur
    rfemur rtibia
    rtibia rfoot
    rfoot rtoes
    lowerbackDummy lowerback
    lowerback upperback
    upperback thorax
    thorax rclavicle lclavicle lowerneck
    rclavicle rhumerus
    rhumerus rradius
    rradius rwrist
    rwrist rthumb rhand
    rhand rfingers
    lclavicle lhumerus
    lhumerus lradius
    lradius lwrist
    lwrist lthumb lhand
    lhand lfingers
    lowerneck upperneck
    upperneck head
  end

:SAMPLES-PER-SECOND 30
:FULLY-SPECIFIED
:DEGREES
82
root  -5.426866802 39.03511228 8.285022345 146.8140259 -65.25800323 -150.7089844
lowerback  7.741439819 7.722350121 -10.67059994
upperback  1.913980007 8.017800331 -11.42669964
thorax  -2.146229982 3.583739996 -7.006849766
lowerneck  -0.4081580043 15.98840046 -1.104490042
upperneck  14.56299973 19.56329918 15.11190033
head  2.751569986 10.02330017 4.946469784
lclavicle  0 -9.442270133e-015 7.951389973e-016
lhumerus  -6.549699783 18.65889931 52.73880005
lradius  4.538338247e-032 -3.501839359e-031 97.38430023
lwrist  -3.531125038e-031 1.059337512e-030 89.19309998
lhand  -1.496451383e-031 -27.76390076 20.11240005
lfingers  90 7.125020027 -90
lthumb  89.89689403 5.08795885 91.16245106
rclavicle  0 -9.442270133e-015 7.951389973e-016
rhumerus  -20.84790039 32.73109818 -87.82350159
rradius  3.521087122e-032 3.513525792e-031 84.27719879
rwrist  7.062250077e-031 8.827812596e-032 -41.11230087
rhand  -7.920061211e-032 -33.2840004 9.303460121
rfingers  -90 -7.125020027 -90
rthumb  -92.93752616 -24.25625642 -97.11982154
rfemur  -10.93869972 16.56340027 12.48950005
rtibia  -0 0 44.52909851
rfoot  -4.449025573e-032 -7.203839779 -5.233970165
rtoes  5.373923086 19.29304026 -105.8922705
lfemur  -22.99699974 -3.038539886 15.07069969
ltibia  -0 0 65.75550079
lfoot  4.42231932e-032 -3.534739971 -6.476220131
ltoes  -4.250644065 -19.5611806 -102.515957
83
root  -5.200999928 38.81377873 8.223666544 147.5809937 -64.84400177 -151.6660156
lowerback  8.453570366 7.449250221 -11.31779957
upperback  2.133850098 7.48623991 -11.14350033
thorax  -2.453769922 3.312939882 -6.374569893
lowerneck  -0.2349060029 16.27899933 -0.9909780025
upperneck  14.09729958 20.04120064 14.72329998
head  2.604029894 10.23180008 4.773389816
lclavicle  0 -9.442270133e-015 7.951389973e-016
lhumerus  -0.7684569955 19.78429985 52.7181015
lradius  5.448463713e-032 -3.488837409e-031 98.87609863
lwrist  -7.062250077e-031 7.062250077e-031 88.16139984
lhand  -1.496451383e-031 -27.76390076 20.11240005
lfingers  90 7.125020027 -90
lthumb  89.89689403 5.08795885 91.16245106
rclavicle  0 -9.442270133e-015 7.951389973e-016
rhumerus  -22.12280083 33.61759949 -85.92549896
rradius  3.211211399e-032 3.516493317e-031 84.78230286
rwrist  7.062250077e-031 2.648343779e-031 -41.41550064
rhand  -7.920061211e-032 -33.2840004 9.303460121
rfingers  -90 -7.125020027 -90
rthumb  -92.93752616 -24.25625642 -97.11982154
rfemur  -12.55300045 18.17379951 12.02610016
rtibia  -0 0 46.67240143
rfoot  -4.441977565e-032 -6.4447999 -3.985249996
rtoes  5.373923086 19.29304026 -105.8922705
lfemur  -23.30089951 -2.565439939 14.58850002
ltibia  -0 0 65.91400146
lfoot  4.419557434e-032 -2.897759914 -6.297060013
ltoes  -4.250644065 -19.5611806 -102.515957
84
root  -4.982488737 38.57066537 8.15626655 147.6530151 -64.53900146 -152.1099854
lowerback  9.34125042 7.093599796 -11.95650005
upperback  2.456279993 6.847650051 -10.65240002
thorax  -2.754650116 2.997450113 -5.507430077
lowerneck  -0.5129860044 16.55500031 -1.574450016
upperneck  13.9531002 20.46190071 14.80630016
head  2.501029968 10.42529964 4.867300034
lclavicle  0 -9.442270133e-015 7.951389973e-016
lhumerus  5.271080017 21.33419991 52.80369949
lradius  6.025249513e-032 -3.479340127e-031 99.82460022
lwrist  -3.531125038e-031 1.059337512e-030 87.02970123
lhand  -1.496451383e-031 -27.76390076 20.11240005
lfingers  90 7.125020027 -90
lthumb  89.89689403 5.08795885 91.16245106
rclavicle  0 -9.442270133e-015 7.951389973e-016
rhumerus  -22.9307003 34.66519928 -83.74479675
rradius  3.211272271e-032 3.516492761e-031 84.78220367
rwrist  7.062250077e-031 4.413906298e-031 -41.74459839
rhand  -7.920061211e-032 -33.2840004 9.303460121
rfingers  -90 -7.125020027 -90
rthumb  -92.93752616 -24.25625642 -97.11982154
rfemur  -13.76159954 19.65430069 11.76500034
rtibia  -0 0 48.73889923
rfoot  -4.438519461e-032 -6.03674984 -2.469810009
rtoes  5.373923086 19.29304026 -105.8922705
lfemur  -23.39049911 -2.235949993 14.14490032
ltibia  -0 0 65.37380219
lfoot  4.417897444e-032 -2.435630083 -6.39440012
ltoes  -4.250644065 -19.5611806 -102.515957
85
root  -4.792244603 38.30377774 8.104955868 148.440979 -64.55500031 -152.8740234
lowerback  9.837220192 6.69961977 -12.72049999
upperback  2.581680059 6.188630104 -10.28829956
thorax  -3.021120071 2.679480076 -4.665380001
lowerneck  -0.3960289955 16.75139999 -2.003340006
upperneck  13.76570034 20.77009964 14.83199978
head  2.35255003 10.55039978 4.890029907
lclavicle  0 -9.442270133e-015 7.951389973e-016
lhumerus  11.03240013 22.42779922 53.06850052
lradius  6.576709675e-032 -3.469338977e-031 100.7340012
lwrist  -3.531125038e-031 7.062250077e-031 87.66269684
lhand  -1.496451383e-031 -27.76390076 20.11240005
lfingers  90 7.125020027 -90
lthumb  89.89689403 5.08795885 91.16245106
rclavicle  0 -9.442270133e-015 7.951389973e-016
rhumerus  -23.78730011 35.63880157 -81.82700348
rradius  3.382959058e-032 3.514882632e-031 84.50240326
rwrist  7.062250077e-031 7.062250077e-031 -42.46110153
rhand  -7.920061211e-032 -33.2840004 9.303460121
rfingers  -90 -7.125020027 -90
rthumb  -92.93752616 -24.25625642 -97.11982154
rfemur  -15.23760033 20.50919914 11.06799984
rtibia  -0 0 50.70270157
rfoot  -5.546341181e-032 -5.857470036 -0.9574779868
rtoes  5.373923086 19.29304026 -105.8922705
lfemur  -23.86800003 -1.95223999 13.22049999
ltibia  -0 0 64.33899689
lfoot  8.837991582e-032 -2.750139952 -6.727930069
ltoes  -4.250644065 -19.5611806 -102.515957
86
root  -4.595088959 37.98333416 8.056889181 147.7609863 -64.77799988 -152.4970093
lowerback  11.03540039 6.30809021 -13.08530045
upperback  2.717230082 5.455009937 -9.766980171
thorax  -3.611500025 2.345900059 -3.91283989
lowerneck  0.1355510056 16.90769958 -2.091039896
upperneck  13.56739998 21.03179932 14.39210033
head  2.231300116 10.63360023 4.713319778
lclavicle  0 -9.442270133e-015 7.951389973e-016
lhumerus  16.16110039 23.11190033 53.36299896
lradius  6.950525145e-032 -3.462043622e-031 101.3519974
lwrist  0 1.412450015e-030 87.9756012
lhand  -1.496451383e-031 -27.76390076 20.11240005
lfingers  90 7.125020027 -90
lthumb  89.89689403 5.08795885 91.16245106
rclavicle  0 -9.442270133e-015 7.951389973e-016
rhumerus  -24.62400055 36.51250076 -80.02719879
rradius  3.7244313e-032 3.511428506e-031 83.94550323
rwrist  7.062250077e-031 3.531125038e-031 -43.10540009
rhand  -7.920061211e-032 -33.2840004 9.303460121
rfingers  -90 -7.125020027 -90
rthumb  -92.93752616 -24.25625642 -97.11982154
rfemur  -15.83349991 21.3458004 10.76889992
rtibia  -0 0 52.39609909
rfoot  -4.7171947e-032 -6.180650234 0.1907249987
rtoes  5.373923086 19.29304026 -105.8922705
lfemur  -24.15169907 -2.224869967 12.61190033
ltibia  -0 0 63.29079819
lfoot  -0 -5.029940128 -6.743859768
ltoes  -4.250644065 -19.5611806 -102.515957
